<svg width="41" height="73" viewBox="0 0 41 73" fill="none" xmlns="http://www.w3.org/2000/svg">
<path d="M3 38V37.65H4.015C4.52833 37.65 4.96 37.5683 5.31 37.405C5.66 37.2417 5.96333 36.9617 6.22 36.565C6.47666 36.1683 6.72166 35.62 6.955 34.92L14.585 13.01H16.37L25.155 35.795C25.3417 36.2617 25.5283 36.635 25.715 36.915C25.9017 37.1717 26.1117 37.3583 26.345 37.475C26.6017 37.5917 26.8933 37.65 27.22 37.65H27.675V38H18.05V37.65H18.855C19.7417 37.65 20.3833 37.545 20.78 37.335C21.1767 37.125 21.375 36.7517 21.375 36.215C21.375 36.075 21.3633 35.935 21.34 35.795C21.3167 35.6317 21.2817 35.4567 21.235 35.27C21.2117 35.0833 21.1533 34.885 21.06 34.675L18.925 28.935H9.44L7.515 34.43C7.445 34.6167 7.38666 34.8033 7.34 34.99C7.29333 35.1767 7.25833 35.3517 7.235 35.515C7.21166 35.655 7.2 35.795 7.2 35.935C7.2 36.565 7.48 37.0083 8.04 37.265C8.6 37.5217 9.49833 37.65 10.735 37.65H11.54V38H3ZM9.545 28.585H18.785L16.23 21.76C15.9267 20.9667 15.6467 20.2083 15.39 19.485C15.1333 18.7617 14.8883 18.0733 14.655 17.42C14.445 16.7433 14.2467 16.09 14.06 15.46C13.8967 15.9733 13.745 16.4517 13.605 16.895C13.465 17.315 13.325 17.735 13.185 18.155C13.045 18.575 12.8817 19.03 12.695 19.52C12.5317 19.9867 12.345 20.535 12.135 21.165L9.545 28.585Z" fill="url(#paint0_linear_19_5)"/>
<path d="M25.03 63.35C23.8867 63.35 22.86 63.2333 21.95 63C21.04 62.7433 20.2583 62.405 19.605 61.985C18.975 61.5417 18.4967 61.0283 18.17 60.445C17.8433 59.8617 17.68 59.22 17.68 58.52C17.68 57.9833 17.7733 57.54 17.96 57.19C18.17 56.8167 18.4617 56.5367 18.835 56.35C19.2083 56.1633 19.6633 56.07 20.2 56.07C20.2233 57.5867 20.41 58.87 20.76 59.92C21.1333 60.9467 21.6933 61.7167 22.44 62.23C23.1867 62.7433 24.1317 63 25.275 63C26.7683 63 27.97 62.5683 28.88 61.705C29.8133 60.8183 30.28 59.5233 30.28 57.82C30.28 56.77 30.0817 55.9183 29.685 55.265C29.3117 54.6117 28.6933 54.0283 27.83 53.515C26.99 52.9783 25.8817 52.395 24.505 51.765C23.7817 51.415 23.035 51.0417 22.265 50.645C21.5183 50.225 20.8183 49.735 20.165 49.175C19.535 48.5917 19.0217 47.8917 18.625 47.075C18.2517 46.235 18.065 45.2433 18.065 44.1C18.065 42.7 18.3683 41.5217 18.975 40.565C19.5817 39.6083 20.4333 38.885 21.53 38.395C22.65 37.905 23.9567 37.66 25.45 37.66C26.8267 37.66 28.0167 37.8467 29.02 38.22C30.0467 38.5933 30.84 39.0833 31.4 39.69C31.9833 40.2967 32.275 40.9617 32.275 41.685C32.275 42.3617 32.0183 42.8983 31.505 43.295C30.9917 43.6683 30.3267 43.855 29.51 43.855C29.51 42.5717 29.37 41.4983 29.09 40.635C28.8333 39.7717 28.4017 39.1183 27.795 38.675C27.1883 38.2317 26.395 38.01 25.415 38.01C24.5283 38.01 23.7467 38.1967 23.07 38.57C22.3933 38.92 21.8683 39.4567 21.495 40.18C21.145 40.88 20.97 41.7667 20.97 42.84C20.97 43.9833 21.18 44.905 21.6 45.605C22.02 46.305 22.65 46.9117 23.49 47.425C24.3533 47.915 25.4267 48.4633 26.71 49.07C27.8767 49.6067 28.95 50.1667 29.93 50.75C30.9333 51.3333 31.7383 52.0683 32.345 52.955C32.9517 53.8417 33.255 55.0083 33.255 56.455C33.255 57.8783 32.9283 59.1033 32.275 60.13C31.645 61.1567 30.7117 61.95 29.475 62.51C28.2617 63.07 26.78 63.35 25.03 63.35Z" fill="url(#paint1_linear_19_5)"/>
<path d="M34.9298 43C34.9298 45.3931 33.7143 47.534 32 47.534C33.7143 47.534 34.9298 49.6752 34.9298 52.0681C34.9298 49.6752 36.1453 47.534 37.8595 47.534C36.1453 47.534 34.9298 45.3931 34.9298 43Z" fill="url(#paint2_linear_19_5)"/>
<path d="M38.3922 47.534C38.3922 48.7307 37.7847 49.801 36.9273 49.801C37.7847 49.801 38.3922 50.8717 38.3922 52.0681C38.3922 50.8717 38.9998 49.801 39.8572 49.801C38.9998 49.801 38.3922 48.7307 38.3922 47.534Z" fill="url(#paint3_linear_19_5)"/>
<path d="M39.0581 43C39.0581 44.1965 38.4506 45.267 37.5932 45.267C38.4505 45.267 39.0581 46.3377 39.0581 47.534C39.0581 46.3377 39.6657 45.267 40.5231 45.267C39.6657 45.267 39.0581 44.1965 39.0581 43Z" fill="url(#paint4_linear_19_5)"/>
<path d="M5.13936 31.077C5.14637 29.2137 6.2695 27.5503 7.84461 27.5554C6.2695 27.5503 5.15891 25.8796 5.16592 24.0165C5.15891 25.8796 4.03578 27.5431 2.46066 27.5381C4.03578 27.5431 5.14637 29.2137 5.13936 31.077Z" fill="url(#paint5_linear_19_5)"/>
<path d="M1.97121 27.5365C1.97471 26.6048 2.53608 25.7732 3.3239 25.7757C2.53608 25.7732 1.98099 24.9378 1.98449 24.0063C1.98099 24.9378 1.41962 25.7696 0.631797 25.7671C1.41962 25.7696 1.97471 26.6048 1.97121 27.5365Z" fill="url(#paint6_linear_19_5)"/>
<path d="M1.34605 31.0648C1.34956 30.1331 1.91093 29.3014 2.69875 29.304C1.91106 29.3014 1.35583 28.4661 1.35934 27.5345C1.35583 28.4661 0.794461 29.2979 0.00664257 29.2953C0.794461 29.2979 1.34956 30.1331 1.34605 31.0648Z" fill="url(#paint7_linear_19_5)"/>
<path d="M31.0725 34.7058C29.9592 34.9082 29.3014 33.525 29.1116 32.8081C27.973 33.5672 25.8856 37.742 25.8856 37.4257C25.8856 37.1727 25.2952 36.8986 25 36.7932C25.8223 35.6546 27.6947 33.0232 28.6055 31.6063C29.5164 30.1893 30.3134 28.7598 30.6297 28.0007C27.8465 29.2658 27.2927 24.6171 27.5935 24.0156C27.9097 23.3831 27.2139 22.6873 26.8344 21.6119C27.3404 22.0547 28.6055 21.8017 30.5032 22.4975C32.4009 23.1933 31.8948 24.3952 32.1478 24.1421C32.3502 23.9397 33.2443 20.8107 33.666 19.2715C33.666 19.3137 33.4762 19.2715 32.7171 18.7655C31.7683 18.1329 31.7683 16.2985 32.0213 15.919C32.2237 15.6154 32.5695 13.5996 32.7171 12.6297C33.375 13.1864 34.2985 15.0545 34.678 15.919C34.9817 15.6154 35.0576 13.3466 35.0576 12.2502C34.7624 11.7863 34.1973 10.6561 34.2985 9.84648C34.3997 9.03682 35.5636 7.61147 36.1329 7C36.4281 7.90666 36.9552 9.94769 36.7022 10.8586C36.4492 11.7694 35.7955 12.1658 35.5004 12.2502V14.0213C35.7323 13.7261 36.4643 12.9243 36.9552 12.6297C37.5878 12.2502 38.9372 12.2713 39.865 12.4399L38.5366 13.3888C37.7143 13.5153 37.7143 16.2985 36.7022 16.6148C35.8925 16.8678 35.2684 16.5094 35.0576 16.2985L33.666 21.2324C33.8557 20.9372 34.3094 20.0786 35.0576 19.651C35.9431 19.145 38.0938 19.5034 39.1692 19.651C37.9041 20.7264 36.4618 23.712 35.5004 24.0156C34.5389 24.3193 33.4973 23.4674 33.0967 23.0036C32.8436 24.4711 31.0936 28.2959 30.2502 30.0249C30.7562 29.4978 32.034 28.5068 33.0967 28.5068C34.678 28.5068 35.9431 30.1092 36.7022 30.9737C36.7022 30.9737 35.5004 30.4255 34.678 30.9737C33.8557 31.5219 32.4641 34.4527 31.0725 34.7058Z" fill="url(#paint8_linear_19_5)"/>
<path d="M16.877 37.9873C18.0039 38.0897 18.2682 39.5984 18.2594 40.3399C19.5595 39.9128 22.6867 36.4476 22.6022 36.7524C22.5345 36.9962 23.0302 37.4182 23.2865 37.5986C22.1898 38.476 19.6823 40.5114 18.4259 41.6333C17.1695 42.7553 16.0194 43.9198 15.5118 44.5668C18.5318 44.0915 17.8231 48.7191 17.3726 49.2183C16.8987 49.7433 17.3833 50.5998 17.4616 51.7375C17.0923 51.1755 15.8056 51.0813 14.1629 49.9036C12.5203 48.726 13.3291 47.7031 13.0177 47.8793C12.7685 48.0202 11.0708 50.7965 10.2531 52.167C10.2643 52.1264 10.4359 52.2178 11.0322 52.9083C11.7774 53.7714 11.2872 55.539 10.9419 55.8372C10.6657 56.0756 9.79382 57.9256 9.39238 58.8208C8.90722 58.1086 8.51654 56.0616 8.38185 55.1272C8.00812 55.3386 7.32866 57.5045 7.03564 58.5611C7.19612 59.087 7.43862 60.327 7.12471 61.0802C6.8108 61.8334 5.30831 62.8958 4.59631 63.3329C4.55416 62.3803 4.59167 60.2727 5.07892 59.4626C5.56616 58.6524 6.30196 58.4451 6.60896 58.4427L7.08229 56.736C6.7799 56.9585 5.86023 57.5356 5.30844 57.6882C4.59746 57.8849 3.30274 57.5039 2.45382 57.0934L3.98743 56.5341C4.81365 56.632 5.55746 53.95 6.61726 53.9157C7.46509 53.8883 7.97072 54.4005 8.11755 54.66L10.7771 50.2775C10.5154 50.5112 9.84877 51.2174 9.01351 51.4294C8.0249 51.6804 6.04825 50.7602 5.05147 50.3306C6.55794 49.6325 8.74561 47.1409 9.75326 47.1052C10.7609 47.0696 11.537 48.1688 11.799 48.7229C12.4351 47.3764 15.1436 44.1583 16.4184 42.7177C15.7899 43.0904 14.2938 43.7038 13.2698 43.4198C11.7459 42.9972 10.9551 41.1149 10.4547 40.079C10.4547 40.079 11.4663 40.9285 12.4052 40.62C13.3441 40.3115 15.4684 37.8592 16.877 37.9873Z" fill="url(#paint9_linear_19_5)"/>
<defs>
<linearGradient id="paint0_linear_19_5" x1="6.20415" y1="26.1197" x2="14.5377" y2="27.0951" gradientUnits="userSpaceOnUse">
<stop stop-color="#4C4242"/>
<stop offset="1"/>
</linearGradient>
<linearGradient id="paint1_linear_19_5" x1="16.7855" y1="49.043" x2="36.956" y2="50.2408" gradientUnits="userSpaceOnUse">
<stop/>
<stop offset="1" stop-color="#4C4242"/>
</linearGradient>
<linearGradient id="paint2_linear_19_5" x1="30.5039" y1="47.3902" x2="37.4785" y2="48.1128" gradientUnits="userSpaceOnUse">
<stop/>
<stop offset="1" stop-color="#4C4242"/>
</linearGradient>
<linearGradient id="paint3_linear_19_5" x1="36.1792" y1="49.7291" x2="39.6667" y2="50.0905" gradientUnits="userSpaceOnUse">
<stop/>
<stop offset="1" stop-color="#4C4242"/>
</linearGradient>
<linearGradient id="paint4_linear_19_5" x1="36.8451" y1="45.1951" x2="40.3326" y2="45.5564" gradientUnits="userSpaceOnUse">
<stop/>
<stop offset="1" stop-color="#4C4242"/>
</linearGradient>
<linearGradient id="paint5_linear_19_5" x1="9.21882" y1="27.6718" x2="2.84029" y2="26.8676" gradientUnits="userSpaceOnUse">
<stop/>
<stop offset="1" stop-color="#4C4242"/>
</linearGradient>
<linearGradient id="paint6_linear_19_5" x1="4.01104" y1="25.8339" x2="0.821626" y2="25.4318" gradientUnits="userSpaceOnUse">
<stop/>
<stop offset="1" stop-color="#4C4242"/>
</linearGradient>
<linearGradient id="paint7_linear_19_5" x1="3.38588" y1="29.3622" x2="0.196471" y2="28.9601" gradientUnits="userSpaceOnUse">
<stop/>
<stop offset="1" stop-color="#4C4242"/>
</linearGradient>
<linearGradient id="paint8_linear_19_5" x1="23.3554" y1="29.2026" x2="38.9161" y2="9.90974" gradientUnits="userSpaceOnUse">
<stop/>
<stop offset="1" stop-color="#4C4242"/>
</linearGradient>
<linearGradient id="paint9_linear_19_5" x1="22.4262" y1="40.2156" x2="0.259967" y2="55.0195" gradientUnits="userSpaceOnUse">
<stop/>
<stop offset="1" stop-color="#4C4242"/>
</linearGradient>
</defs>
</svg>
